grf
version=1
nRows=25
nColumns=28
inDegrees=no
endheader
time	ground_force_1_vx	ground_force_1_vy	ground_force_1_vz	ground_force_1_px	ground_force_1_py	ground_force_1_pz	ground_moment_1_mx	ground_moment_1_my	ground_moment_1_mz	ground_force_2_vx	ground_force_2_vy	ground_force_2_vz	ground_force_2_px	ground_force_2_py	ground_force_2_pz	ground_moment_2_mx	ground_moment_2_my	ground_moment_2_mz	ground_force_3_vx	ground_force_3_vy	ground_force_3_vz	ground_force_3_px	ground_force_3_py	ground_force_3_pz	ground_moment_3_mx	ground_moment_3_my	ground_moment_3_mz
      0.61000000	      0.73617655	     -0.12718219	      0.86266210	    644.41148356	  -2085.04352970	      3.36599735	     -0.19901052	     -0.71962460	   -394.31553435	    -13.06247786	   -222.08927507	  -1841.08962051	    415.45357919	  -1577.68393618	      0.28834330	      0.21425080	      2.77089230	  -3320.28659649	      1.52769875	     -0.62057752	      4.14062798	    478.41972783	   -290.58810296	      0.40244488	     -0.11376856	      0.83573551	    406.95317014
      0.62000000	      0.34922319	      0.02690803	      1.68538642	    564.17048125	  -1501.37070703	      2.34129382	      0.05784185	      0.20915688	    114.60670881	    -41.70529803	   -249.36620813	  -1626.08864102	    418.31173090	  -1581.85097842	      0.28505019	      0.13989504	      1.80925382	  -2167.98076524	      1.62053797	     -0.67932644	      3.46744732	    527.05598312	   -308.10674365	      0.45201870	     -0.12377975	      0.90927702	    442.76348425
      0.63000000	      0.53671900	      0.07472762	      1.52220555	    464.91153699	  -1511.40487450	      2.40970200	      0.00323611	      0.01170183	      6.41197132	    -61.11180898	   -269.34290293	  -1370.95535010	    420.94411201	  -1585.38961101	      0.28226694	      0.06927552	      0.89593597	  -1073.57626317	      1.67457031	     -0.64123719	      4.62008055	    465.12529515	   -276.16409009	      0.36910652	     -0.10790075	      0.79263105	    385.96388026
      0.64000000	      0.20238426	      0.11175064	      1.13187834	    436.34127318	  -1484.64803288	      2.37529022	      0.06802277	      0.24597123	    134.77898751	    -74.01794459	   -262.81672565	  -1092.61808270	    423.30604415	  -1589.40450894	      0.27906879	     -0.03537888	     -0.45755282	    548.27338764	      1.52672577	     -0.83347882	      4.36091308	    492.87275546	   -289.08352898	      0.40339554	     -0.12806261	      0.94073860	    458.08339309
      0.65000000	      0.32320148	      0.24078315	      0.86896365	    275.37563575	  -1677.01608432	      2.80760044	      0.03665823	      0.13255663	     72.63389804	    -73.08542573	   -237.13598535	   -803.80976198	    424.63637378	  -1593.15168211	      0.27602749	     -0.12638101	     -1.63447777	   1958.55127194	      1.50300922	     -0.81476591	      4.47632239	    463.38336603	   -297.74686842	      0.41294281	     -0.10896250	      0.80043055	    389.76176884
      0.66000000	      0.48776941	      0.36376071	      1.85154637	    345.32349986	  -1320.79584665	      2.12219704	      0.08322038	      0.30092598	    164.89123417	    -63.44743408	   -196.91424318	   -523.70379758	    425.66520448	  -1599.04236860	      0.27117789	     -0.17875207	     -2.31178946	   2770.15586164	      1.56665266	     -0.87595729	      4.06154841	    479.73261276	   -276.33760652	      0.37354651	     -0.12236279	      0.89886813	    437.69498009
      0.67000000	      0.35524168	      0.49954437	      1.40339717	    216.81689960	  -1323.51033565	      2.19200809	      0.14576817	      0.52709959	    288.82219449	    -41.28433934	   -128.06713170	   -299.96725974	    424.59765871	  -1609.54213388	      0.26234660	     -0.17444176	     -2.25604450	   2703.35816508	      1.70879876	     -0.90155780	      4.48976643	    494.46818543	   -300.08116084	      0.42642674	     -0.11510670	      0.84556538	    411.73972950
      0.68000000	      0.19027394	      0.46254471	      1.76579917	    282.73912177	  -1265.47501347	      2.05282295	      0.12270887	      0.44371685	    243.13294435	    -21.84496618	    -65.61939257	   -155.08250737	    423.11472647	  -1627.62029428	      0.24716407	     -0.12427074	     -1.60718583	   1925.84805777	      1.59297995	     -0.72154938	      4.55250243	    425.19489825	   -278.86590582	      0.36349207	     -0.11176642	      0.82102796	    399.79147564
      0.69000000	      0.28543139	      0.50126146	      1.87018011	    277.11791233	  -1227.91877148	      1.98711994	      0.12703461	      0.45935878	    251.70387879	     -9.17413132	    -38.03458417	    -58.58268566	    418.05814520	  -1637.42860195	      0.23865241	     -0.02915070	     -0.37700419	    451.75410579	      1.49599797	     -0.46603271	      4.50540889	    486.96069973	   -278.90087704	      0.38083124	     -0.11982820	      0.88024922	    428.62868270
      0.70000000	      0.04044397	      0.45031769	      1.98142682	    284.56758249	  -1222.01340380	      1.97258283	      0.12291954	      0.44447863	    243.55035539	     -1.61749812	    -11.75428476	    -17.46364538	    431.12387217	  -1665.30188889	      0.21623430	     -0.02844144	     -0.36783133	    440.76250788	      1.38535005	     -0.93428377	      4.39634241	    471.39833237	   -312.26139614	      0.44499111	     -0.09303734	      0.68344549	    332.79704748
      0.71000000	      0.18846052	      0.57472867	      2.20850372	    278.88119920	  -1223.16801144	      1.97755989	      0.11949754	      0.43210466	    236.77008530	      0.54578946	      4.28957203	      3.19270835	    271.33143605	  -1470.39353813	      0.36858091	     -0.04929424	     -0.63751935	    763.92249344	      1.72105920	     -0.73408668	      4.54391233	    460.27999896	   -292.39268025	      0.40107965	     -0.09979621	      0.73309569	    356.97372288
      0.72000000	      0.40765145	      0.55107553	      2.26284826	    290.19236166	  -1204.39145545	      1.93758401	      0.13030874	      0.47119808	    258.19117545	      0.22956486	      3.63819650	      1.26886646	     13.49298906	  -1085.70780529	      0.67297651	     -0.10913598	     -1.41144886	   1691.30165462	      1.63718630	     -0.95477295	      4.45953854	    490.00379618	   -290.74388023	      0.40600325	     -0.10555897	      0.77542851	    377.58727252
      0.73000000	      0.51799173	      0.44964983	      1.60775285	    199.69036640	  -1183.08666049	      1.94437906	      0.14865935	      0.53755414	    294.55072224	      0.32364041	      3.33573000	      2.03364194	    202.55495750	  -1378.01904294	      0.44123258	     -0.05882763	     -0.76081403	    911.66323042	      1.66195091	     -0.81768901	      4.26483789	    462.83505129	   -299.10644518	      0.41558161	     -0.08759869	      0.64349358	    313.34285615
      0.74000000	      0.57089826	      0.49909603	      1.66958693	    239.77281674	  -1247.76088181	      2.04217975	      0.12721578	      0.46001391	    252.06285500	      0.44607518	      3.28039570	      1.45153746	     11.76428849	  -1156.88189768	      0.61346776	     -0.10749348	     -1.39020656	   1665.84757072	      1.70226258	     -0.68284776	      5.10243054	    466.32794699	   -320.48767879	      0.46046745	     -0.09842739	      0.72304043	    352.07741257
      0.75000000	      0.40348953	      0.69240408	      1.74328809	    235.45442865	  -1276.78608621	      2.09733014	      0.13857742	      0.50109774	    274.57458129	      0.09997500	      2.79364323	      1.26140683	     62.37555427	  -1075.05171892	      0.68502366	     -0.07022926	     -0.90827069	   1088.35663173	      1.62188268	     -0.89265076	      4.71098048	    467.29212392	   -298.50429044	      0.41559103	     -0.07210869	      0.52970520	    257.93472621
      0.76000000	      0.27691544	      0.65969519	      1.69078522	    250.84576411	  -1229.05793226	      2.00245843	      0.16255603	      0.58780471	    322.08532975	      0.30135653	      3.09769158	      1.94967940	    158.06308805	  -1324.96096568	      0.48264039	     -0.06431316	     -0.83175809	    996.67360775	      1.53763941	     -0.87990951	      4.74299378	    470.36514869	   -291.14572002	      0.40133827	     -0.11602608	      0.85231913	    415.02840206
      0.77000000	      0.22014953	      0.33540108	      1.69998905	    266.80992739	  -1211.68149875	      1.96268940	      0.11620027	      0.42018169	    230.23694317	      0.25107424	      3.06743170	      1.11652715	   -154.51323639	   -993.35592654	      0.73920623	     -0.12316688	     -1.59290962	   1908.74125940	      1.56413579	     -0.93546250	      5.05140778	    457.75571241	   -275.57590200	      0.36583834	     -0.10560423	      0.77576093	    377.74914091
      0.78000000	      0.25267927	      0.65152252	      1.67524219	    245.65284572	  -1214.08857252	      1.97776025	      0.15206981	      0.54988640	    301.30813935	      0.18714624	      3.01761937	      1.20346850	   -160.70901845	  -1191.51535720	      0.57343563	     -0.11709314	     -1.51435828	   1814.61527182	      1.57814449	     -0.75166291	      4.92411776	    451.88319030	   -313.73567272	      0.44256306	     -0.10220531	      0.75079272	    365.59111583
      0.79000000	      0.11028087	      0.50373622	      1.80131298	    292.34182673	  -1226.44279668	      1.97674280	      0.12745582	      0.46088189	    252.53845874	      0.40823246	      3.01288733	      1.74207594	    149.40673938	  -1292.35468835	      0.50929286	     -0.06460497	     -0.83553205	   1001.19584321	      1.50591166	     -0.82828654	      4.24454692	    451.97919127	   -269.54684354	      0.35184193	     -0.11556778	      0.84895248	    413.38904314
      0.80000000	      0.28295765	      0.36963144	      1.74356810	    282.16545081	  -1213.42422863	      1.95811996	      0.12515555	      0.45256410	    247.98075760	      0.33353890	      2.91137434	      1.42234589	     37.95106684	  -1194.23085861	      0.58398855	     -0.08811591	     -1.13959755	   1365.54945627	      1.58206294	     -0.85255376	      5.10460637	    450.22302515	   -316.04227703	      0.44683588	     -0.08942755	      0.65692826	    319.88474172
      0.81000000	      0.34727352	      0.57686385	      1.95575370	    247.15205481	  -1194.33072210	      1.94094559	      0.16254589	      0.58776803	    322.06523240	      0.04492121	      2.88725299	      1.17722213	    -11.17071694	  -1022.26036536	      0.72433407	     -0.08162724	     -1.05568006	   1264.99335927	      1.64246214	     -0.80790514	      4.81445727	    468.04273442	   -316.41698756	      0.45258711	     -0.09964680	      0.73199814	    356.43927960
      0.82000000	      0.25657078	      0.45570273	      1.43159789	    192.87471506	  -1196.69915569	      1.97266167	      0.13903087	      0.50273742	    275.47303713	      0.19541740	      2.76157080	      1.64378995	     39.74060820	  -1362.32642155	      0.44382255	     -0.07501434	     -0.97015578	   1162.51188542	      1.79062346	     -0.77359643	      4.41387173	    421.60984460	   -303.21481581	      0.41249373	     -0.09932424	      0.72962861	    355.28546094
      0.83000000	      0.27522288	      0.56618018	      1.49649366	    213.45804937	  -1178.82552627	      1.92965397	      0.14024473	      0.50712677	    277.87816344	      0.17336646	      2.80508121	      1.00578736	   -202.84945521	   -864.46259008	      0.84365308	     -0.11683602	     -1.51103299	   1810.63067216	      1.31515680	     -0.76100264	      4.48702246	    499.23601442	   -300.76434663	      0.42916266	     -0.09779298	      0.71838012	    349.80812048
      0.84000000	      0.36079867	      0.44462632	      1.50197154	    212.96721780	  -1169.77716114	      1.91338846	      0.14674303	      0.53062468	    290.75375158	      0.31066472	      2.78659562	      1.90825918	    157.80018273	  -1316.30110836	      0.48985037	     -0.05722645	     -0.74010607	    886.84942792	      1.57362063	     -0.70335181	      4.45300351	    428.84396135	   -262.25948997	      0.33040860	     -0.11464487	      0.84217282	    410.08775823
      0.85000000	      0.28272963	      0.53110883	      1.98185650	    259.53766319	  -1207.96860652	      1.95958368	      0.13928734	      0.50366482	    275.98120318	      0.37156717	      3.10697995	      0.89040935	   -318.97686133	   -887.63470348	      0.81682172	     -0.17043807	     -2.20426503	   2641.31219870	      1.73909225	     -0.69304660	      5.18042505	    443.19636154	   -250.59281647	      0.31046183	     -0.11019419	      0.80947845	    394.16755484
